<?xml version="1.0" encoding="UTF-8" standalone="no"?>
<svg
   xmlns:dc="http://purl.org/dc/elements/1.1/"
   xmlns:cc="http://creativecommons.org/ns#"
   xmlns:rdf="http://www.w3.org/1999/02/22-rdf-syntax-ns#"
   xmlns:svg="http://www.w3.org/2000/svg"
   xmlns="http://www.w3.org/2000/svg"
   xmlns:sodipodi="http://sodipodi.sourceforge.net/DTD/sodipodi-0.dtd"
   xmlns:inkscape="http://www.inkscape.org/namespaces/inkscape"
   version="1.1"
   width="25"
   height="470"
   viewBox="0 0 25 470"
   id="svg881"
   sodipodi:docname="sprite.svg"
   inkscape:version="0.92.3 (2405546, 2018-03-11)">
  <metadata
     id="metadata887">
    <rdf:RDF>
      <cc:Work
         rdf:about="">
        <dc:format>image/svg+xml</dc:format>
        <dc:type
           rdf:resource="http://purl.org/dc/dcmitype/StillImage" />
        <dc:title></dc:title>
      </cc:Work>
    </rdf:RDF>
  </metadata>
  <defs
     id="defs885" />
  <sodipodi:namedview
     pagecolor="#ffffff"
     bordercolor="#666666"
     borderopacity="1"
     objecttolerance="10"
     gridtolerance="10"
     guidetolerance="10"
     inkscape:pageopacity="0"
     inkscape:pageshadow="2"
     inkscape:window-width="1851"
     inkscape:window-height="1056"
     id="namedview883"
     showgrid="false"
     inkscape:zoom="1.7383042"
     inkscape:cx="36.160817"
     inkscape:cy="224.77154"
     inkscape:window-x="69"
     inkscape:window-y="24"
     inkscape:window-maximized="1"
     inkscape:current-layer="layer2" />
  <g
     inkscape:groupmode="layer"
     id="layer1"
     inkscape:label="sp1"
     transform="translate(0,5)">
    <g
       id="g1679"
       transform="translate(0,-4)">
      <path
         style="fill:#00d700;fill-opacity:1"
         inkscape:connector-curvature="0"
         id="path879"
         d="m 10.828246,243.64173 -5.0000003,-5 1.41,-1.42 3.5900003,3.59001 7.59,-7.59001 1.41,1.42 m -7,-6 a 10,10 0 0 0 -9.9999973,10 10,10 0 0 0 9.9999983,10.00001 10,10 0 0 0 10,-10.00001 10,10 0 0 0 -10.000001,-10 z" />
      <path
         style="fill:#ff2a2a;fill-opacity:1"
         inkscape:connector-curvature="0"
         d="m 2.8282486,94.038537 1.280001,-1.26999 16.7199984,16.720003 -1.269999,1.28 -1.480001,-1.5 c -1.55,1 -3.3,1.5 -5.25,1.5 -2.75,0 -5.0999994,-1 -7.0500004,-2.95001 -1.95,-1.95 -2.95,-4.30001 -2.95,-7.05 0,-1.950003 0.5,-3.700003 1.5,-5.249993 l -1.5,-1.48001 M 13.828248,108.68855 c 1,-0.12 1.930002,-0.42001 2.78,-0.87001 l -2.28,-2.27 c -0.16,0.06 -0.34,0.1 -0.5,0.14 v 3.00001 M 4.9082486,99.768544 h 2.92 l 0.370001,-0.369997 -2.41,-2.4 c -0.460001,0.849999 -0.75,1.76999 -0.88,2.769987 m 15.8399984,1.999996 h -3 c -0.119996,0.54 -0.319998,1.05 -0.59,1.5 l -6.42,-6.409973 0.09,-0.09 h 4 l 3,2.999977 h 2.92 c -0.25,-1.949998 -1.129998,-3.619978 -2.649997,-4.999988 -1.510002,-1.34001 -3.270003,-2.00001 -5.270003,-2.00001 -1.739999,0 -3.2900137,0.5 -4.6600157,1.50001 l -1.43,-1.410009 c 1.75,-1.38 3.7800007,-2.090001 6.0900157,-2.090001 2.75,0 5.100002,1 7.05,2.95 1.95,1.95002 2.95,4.300021 2.95,7.050004 0,2.30999 -0.709998,4.34 -2.089997,6.09 l -1.409998,-1.42 c 0.78,-1.08001 1.260002,-2.31001 1.42,-3.67001 m -8.92,6.92002 v -3.00001 c -0.999984,-0.22 -1.8400097,-0.68 -2.5400138,-1.38001 -0.6999979,-0.7 -1.1599979,-1.53999 -1.3799979,-2.53999 h -3 c 0.22,1.76999 0.97,3.3 2.269999,4.6 1.300002,1.3 2.8499997,2.07 4.6500127,2.32001 z"
         id="path1432" />
      <path
         style="fill:#ff2a2a;fill-opacity:1"
         inkscape:connector-curvature="0"
         d="m 12.828249,171.66046 c 5.53,0 10,4.47 10,10 0,5.53 -4.47,10 -10,10 -5.5300013,0 -10.0000023,-4.47 -10.0000023,-10 0,-5.53 4.470001,-10 10.0000023,-10 m 3.590001,5 -3.590001,3.59 -3.5900014,-3.59 -1.4099999,1.41 3.5900023,3.59 -3.5900023,3.59 1.4099999,1.41 3.5900014,-3.59 3.590001,3.59 1.409999,-1.41 -3.59,-3.59 3.59,-3.59 z"
         id="path1443" />
      <path
         style="fill:#ff5722;fill-opacity:0.94117647"
         inkscape:connector-curvature="0"
         d="m 22.828247,210.15109 v 8 a 2,2 0 0 1 -2,2 H 4.8282487 a 2,2 0 0 1 -2,-2 v -8 a 1,1 0 0 1 -1,-1 v -3 a 2,2 0 0 1 2,-2 h 3.169999 c -0.11,-0.31 -0.17,-0.65 -0.17,-1 a 3,3 0 0 1 3,-3 c 1.0000003,0 1.8800003,0.5 2.4300013,1.24 v -0.01 l 0.569999,0.77 0.57,-0.77 v 0.01 c 0.55,-0.74 1.43,-1.24 2.43,-1.24 a 3,3 0 0 1 2.999999,3 c 0,0.35 -0.06,0.69 -0.17,1 h 3.17 a 2,2 0 0 1 2,2 v 3 a 1,1 0 0 1 -1,1 m -17.9999993,8 h 7.0000003 v -8 H 4.8282477 v 8 m 15.9999993,0 v -8 h -6.999999 v 8 h 6.999999 m -10.9999993,-16 a 1,1 0 0 0 -1,1 1,1 0 0 0 1,1 1,1 0 0 0 1.0000003,-1 1,1 0 0 0 -1.0000003,-1 m 6.0000003,0 a 1,1 0 0 0 -1,1 1,1 0 0 0 1,1 1,1 0 0 0 1,-1 1,1 0 0 0 -1,-1 m -12.0000003,4 v 2 h 8.0000003 v -2 H 3.8282477 m 10.0000003,0 v 2 h 7.999999 v -2 z"
         id="path1454" />
      <path
         style="fill:#00d700;fill-opacity:1"
         inkscape:connector-curvature="0"
         d="m 1.2032467,127.0892 5.590002,5.59 1.41,-1.42 -5.580002,-5.58 m 20.4100023,-6.42 -10.58,10.59 -4.1600003,-4.17 -1.43,1.41 5.5900003,5.59 12,-12 m -5.66,0 -1.41,-1.42 -6.35,6.35 1.42,1.41 z"
         id="path1465" />
      <path
         style="fill:#ff5722;fill-opacity:0.94117647"
         inkscape:connector-curvature="0"
         d="m 4.1582485,43.819244 h 3.9999983 v 10 H 4.1582475 v -10 m 7.0000005,1 h 4 v 9 h -4 v -9 m 7,-5 h 4 v 14 h -4 v -14 m 0,-8 h 4 v 4 h -1 v -1.93999 l -8.030001,8.03 -3.9700002,-3.97 -4.5999983,4.59999 -1.0600007,-1.06 5.659999,-5.66 3.9700002,3.97 6.97,-6.97 h -1.939999 z"
         id="path1476" />
      <path
         style="fill:#808080"
         inkscape:connector-curvature="0"
         d="M 6.8282497,6.3286133 H 18.828251 v 3.9599997 l -6,-1.9599997 -6.0000013,1.9599997 m -2.06,9.04 h 0.06 c 1.6,0 3,-0.88 4,-2 1,1.12 2.4000013,2 4.0000013,2 1.6,0 3,-0.88 4,-2 1,1.12 2.4,2 4,2 h 0.05 l 1.9,-6.69 c 0.08,-0.25 0.05,-0.53 -0.06,-0.77 -0.130001,-0.24 -0.340001,-0.42 -0.600001,-0.5 l -1.29,-0.42 V 6.3286133 c 0,-1.11 -0.899999,-2 -2,-2 h -3 v -3 H 9.8282486 v 3 H 6.8282487 a 2,2 0 0 0 -2,2 v 4.6199997 l -1.289999,0.42 c -0.260001,0.08 -0.47,0.26 -0.600001,0.5 -0.11,0.24 -0.14,0.52 -0.06,0.77 m 17.9499993,8.69 c -1.39,0 -2.78,-0.47 -4,-1.33 -2.439999,1.71 -5.559998,1.71 -8.0000003,0 -1.219999,0.86 -2.609999,1.33 -4,1.33 h -2 v 2 h 2 c 1.370001,0 2.740001,-0.35 4,-1 2.5000013,1.3 5.5000003,1.3 8.0000003,0 1.260002,0.65 2.620002,1 4,1 h 2 v -2 z"
         id="path1487" />
      <path
         style="fill:#808080;fill-opacity:1"
         inkscape:connector-curvature="0"
         d="M 17.328248,158.16983 H 8.3282477 v -14 h 9.0000003 m -4.5,18 a 1.5,1.5 0 0 1 -1.5,-1.5 1.5,1.5 0 0 1 1.5,-1.5 1.5,1.5 0 0 1 1.5,1.5 1.5,1.5 0 0 1 -1.5,1.5 m 4,-21 H 8.8282477 a 2.5,2.5 0 0 0 -2.5,2.5 v 17 a 2.5,2.5 0 0 0 2.5,2.5 h 8.0000003 a 2.5,2.5 0 0 0 2.5,-2.5 v -17 a 2.5,2.5 0 0 0 -2.5,-2.5 z"
         id="path1498" />
      <path
         style="fill:#ff5722;fill-opacity:0.94117647"
         inkscape:connector-curvature="0"
         d="m 12.828248,71.777873 c 1.359,0 2.484,-1.125 2.484,-2.484 0,-1.359 -1.125,-2.484 -2.484,-2.484 -1.359,0 -2.484,1.125 -2.484,2.484 0,1.359 1.125,2.484 2.484,2.484 z m 0,-9.468 c 3.891,0 6.984,3.094 6.984,6.984 0,5.25 -6.984,12.98402 -6.984,12.98402 0,0 -6.9840003,-7.73402 -6.9840003,-12.98402 0,-3.891 3.094,-6.984 6.9840003,-6.984 z"
         id="path1511" />
      <path
         style="fill:#6699ff;fill-opacity:1;stroke-width:0.92809087"
         inkscape:connector-curvature="0"
         d="M 3.5473377,257.13237 H 22.10916 c 0.974492,0 1.856179,0.88169 1.856179,1.85618 v 12.99328 c 0,0.97449 -0.881689,1.85618 -1.856179,1.85618 H 3.5473377 c -0.974495,0 -1.856181,-0.88169 -1.856181,-1.85618 v -12.99328 c 0,-0.97449 0.881686,-1.85618 1.856181,-1.85618 m 11.1370913,2.78427 v 0.92809 h 7.424731 v -0.92809 h -7.424728 m 0,1.85619 v 0.92809 h 6.960678 0.46405 v -0.92809 h -7.424728 m 0,1.85618 v 0.92809 h 6.496639 v -0.92809 h -6.496639 m -5.5685523,3.62884 c -1.856179,0 -5.56854,1.01161 -5.56854,2.8678 v 0.92809 H 14.684432 v -0.92809 c 0,-1.85619 -3.712359,-2.8678 -5.5685523,-2.8678 m 0,-7.34121 a 2.7842725,2.7842725 0 0 0 -2.78427,2.78428 2.7842725,2.7842725 0 0 0 2.78427,2.78427 2.7842725,2.7842725 0 0 0 2.7842793,-2.78427 2.7842725,2.7842725 0 0 0 -2.7842793,-2.78428 z"
         id="path1522" />
      <path
         style="fill:#ff6600"
         inkscape:connector-curvature="0"
         d="m 13.828248,300.24864 c 1.8,-0.22 3.35,-0.97 4.65,-2.27 1.3,-1.3 2.05,-2.85 2.27,-4.65 h -3 c -0.22,1 -0.68,1.84 -1.38,2.54 -0.7,0.7 -1.54,1.16 -2.54,1.38 v 3 m -3,-11.92 h 4 l 3,3 h 2.92 c -0.25,-1.95 -1.13,-3.62 -2.65,-5 -1.51,-1.34 -3.27,-2 -5.27,-2 -2,0 -3.7600003,0.66 -5.2700003,2 -1.52,1.38 -2.4,3.05 -2.65,5 h 2.92 l 3.0000003,-3 m 1,11.92 v -3 c -1,-0.22 -1.8400003,-0.68 -2.5400003,-1.38 -0.7,-0.7 -1.16,-1.54 -1.38,-2.54 h -3 c 0.22,1.77 0.97,3.3 2.27,4.6 1.3,1.3 2.8500003,2.07 4.6500003,2.32 m 1,-17.92 c 2.75,0 5.1,1 7.05,2.95 1.95,1.95 2.95,4.3 2.95,7.05 0,2.75 -1,5.1 -2.95,7.05 -1.95,1.95 -4.3,2.95 -7.05,2.95 -2.75,0 -5.1000003,-1 -7.0500003,-2.95 -1.95,-1.95 -2.95,-4.3 -2.95,-7.05 0,-2.75 1,-5.1 2.95,-7.05 1.95,-1.95 4.3000003,-2.95 7.0500003,-2.95 z"
         id="path1552" />
    </g>
  </g>
  <g
     inkscape:groupmode="layer"
     id="layer2"
     inkscape:label="l2"
     transform="translate(0,5)">
    <path
       id="path1600"
       d="m 7.6334907,363.81636 c -0.89,0 -1.61,-0.72 -1.61,-1.61 a 1.61,1.61 0 0 1 1.61,-1.61 c 0.89,0 1.61,0.72 1.61,1.61 v 0 a 1.61,1.61 0 0 1 -1.61,1.61 m 0,-6.11 c -2.5,0 -4.5,2 -4.5,4.5 0,3.37 4.5,8.36 4.5,8.36 0,0 4.4999993,-4.99 4.4999993,-8.36 0,-2.5 -2.000001,-4.5 -4.4999993,-4.5 m 10.9999983,6.11 a 1.61,1.61 0 0 1 -1.61,-1.61 c 0,-0.89 0.72,-1.61 1.61,-1.61 0.89,0 1.61,0.72 1.61,1.61 a 1.61,1.61 0 0 1 -1.61,1.61 m 0,-6.11 c -2.5,0 -4.5,2 -4.5,4.5 0,3.37 4.5,8.36 4.5,8.36 0,0 4.5,-4.99 4.5,-8.36 0,-2.5 -2,-4.5 -4.5,-4.5 m 0,14 c -1.27,0 -2.4,0.8 -2.82,2 H 10.45349 c -0.5500005,-1.56 -2.2699993,-2.38 -3.8199993,-1.83 -1.57,0.55 -2.39,2.27 -1.84,3.83 0.56,1.56 2.27,2.38 3.84,1.83 0.8499993,-0.3 1.4999983,-0.98 1.8199993,-1.83 h 5.369999 c 0.55,1.56 2.27,2.38 3.81,1.83 1.58,-0.55 2.4,-2.27 1.85,-3.83 -0.43,-1.2 -1.57,-2 -2.85,-2 v 0 m 0,4.5 a 1.5,1.5 0 0 1 -1.5,-1.5 1.5,1.5 0 0 1 1.5,-1.5 1.5,1.5 0 0 1 1.5,1.5 1.5,1.5 0 0 1 -1.5,1.5 z"
       inkscape:connector-curvature="0"
       style="fill:#ff5722;fill-opacity:0.94117647" />
    <path
       id="path1611"
       d="m 9.5225237,424.84369 -1.4100008,1.41 -1.37,-1.37 c -0.86,1.11 -1.44,2.44 -1.62,3.9 h 1.94 v 2 h -4 v -1 c 0,-4.84 3.44,-8.87 8.0000011,-9.8 v -2 l -8.0000011,-3.2 v -2 H 23.062523 v 2 l -8,3.2 v 2 c 4.56,0.93 8,4.96 8,9.8 v 1 h -4 v -2 h 1.94 c -0.18,-1.46 -0.76,-2.79 -1.62,-3.9 l -1.37,1.37 -1.41,-1.41 1.37,-1.38 c -1.11,-0.86 -2.45,-1.44 -3.91,-1.62 v 1.94 h -1.999999 v -1.94 c -1.46,0.18 -2.8000011,0.76 -3.9100011,1.62 l 1.3700008,1.38 m 3.5399993,2.94 a 2,2 0 0 1 2,2 2,2 0 0 1 -2,2 c -0.32,0 -0.619999,-0.07 -0.879999,-0.21 l -3.8500011,-1.79 3.8500011,-1.79 c 0.26,-0.14 0.559999,-0.21 0.879999,-0.21 z"
       inkscape:connector-curvature="0"
       style="fill:#ff9900;fill-opacity:0.94117647" />
    <path
       id="path1622"
       d="M 20.991554,319.6301 H 4.9915562 v -12 H 20.991554 m 0,-2 H 4.9915562 c -1.11,0 -2,0.89 -2,2 v 12 a 2,2 0 0 0 2,2 H 20.991554 a 2,2 0 0 0 2,-2 v -12 c 0,-1.11 -0.9,-2 -2,-2 m -8.999999,13 h 1.999999 v -1 h 1 a 1,1 0 0 0 1,-1 v -3 a 1,1 0 0 0 -1,-1 h -2.999999 v -1 h 3.999999 v -2 h -2 v -1 h -1.999999 v 1 h -1 a 1,1 0 0 0 -0.9999986,1 v 3 a 1,1 0 0 0 0.9999986,1 h 2.999999 v 1 H 9.9915564 v 2 h 1.9999986 z"
       inkscape:connector-curvature="0"
       style="fill:#ff9900;fill-opacity:1" />
    <path
       id="path1633"
       d="M 4.9205875,387.24557 H 20.920588 a 2,2 0 0 1 2,2 v 11.99999 a 2,2 0 0 1 -2,2 H 4.9205875 c -1.11,0 -2,-0.9 -2,-2 v -11.99999 c 0,-1.11 0.89,-2 2,-2 m 8.0000005,7 8,-5 H 4.9205875 l 8.0000005,5 m -8.0000005,6.99999 H 20.920588 v -9.62999 l -8,4.98999 -8.0000005,-4.98999 z"
       inkscape:connector-curvature="0"
       style="fill:#ff5722;fill-opacity:0.94117647" />
    <path
       id="path1644"
       d="m 12.849619,331.16823 -9.9999982,9 h 3 v 8 H 19.849619 v -8 h 3 l -10,-9 m 0,5.75 a 2.25,2.25 0 0 1 2.25,2.25 2.25,2.25 0 0 1 -2.25,2.25 2.25,2.25 0 0 1 -2.249999,-2.25 2.25,2.25 0 0 1 2.249999,-2.25 m 0,6.25 c 1.5,0 4.5,0.75 4.5,2.25 v 0.75 H 8.3496208 v -0.75 c 0,-1.5 2.9999992,-2.25 4.4999982,-2.25 z"
       inkscape:connector-curvature="0"
       style="fill:#00d700;fill-opacity:1" />
    <path
       id="path1657"
       d="m 16.205652,456.74882 c -1.39,0.99 -3.09,1.573 -4.926999,1.573 -4.6940008,0 -8.5000008,-3.806 -8.5000008,-8.5 0,-4.694 3.806,-8.5 8.5000008,-8.5 4.693999,0 8.499999,3.806 8.499999,8.5 0,2.347 -0.951,4.472 -2.49,6.01 l 5.997,5.997 c 0.275,0.275 0.268,0.716 -0.008,0.992 -0.278,0.278 -0.72,0.28 -0.992,0.008 l -6.081,-6.081 z m -4.926999,0.573 c 4.141999,0 7.499999,-3.358 7.499999,-7.5 0,-4.142 -3.358,-7.5 -7.499999,-7.5 -4.1420008,0 -7.5000008,3.358 -7.5000008,7.5 0,4.142 3.358,7.5 7.5000008,7.5 z"
       inkscape:connector-curvature="0"
       style="fill:#ff6600" />
  </g>
</svg>
